<svg width="120" height="32" viewBox="0 0 120 32" fill="none" xmlns="http://www.w3.org/2000/svg">
  <!-- Z -->
  <path d="M4 26V24H16L4 8V6H20V8H8L20 24V26H4Z" fill="#BF1A65"/>
  <!-- E -->
  <path d="M26 26V6H38V8H28V15H36V17H28V24H38V26H26Z" fill="#BF1A65"/>
  <!-- N -->
  <path d="M44 26V6H46V22L56 6H58V26H56V10L46 26H44Z" fill="#BF1A65"/>
  <!-- M -->
  <path d="M64 26V6H66L72 20L78 6H80V26H78V10L73 22H71L66 10V26H64Z" fill="white"/>
  <!-- A -->
  <path d="M86 26L88 20H96L98 26H100L93 6H91L84 26H86ZM89 18L92 10L95 18H89Z" fill="white"/>
</svg>